<?xml version="1.0" standalone="no"?>
<svg xmlns="http://www.w3.org/2000/svg" xmlns:xlink="http://www.w3.org/1999/xlink" width="2444pt" height="800pt" viewBox="0.00 0.00 2444.28 800.00">
<g id="graph0" class="graph" transform="translate(315.0842648999425,759.0616790825641) scale(0.8120176364390853)" data-name="G">

<polygon fill="white" stroke="none" points="-4,4 -4,-796 2440.28,-796 2440.28,4 -4,4" style=""/>
<!-- data.aws_availability_zones.available -->
<g id="node1" class="node" pointer-events="visible" data-name="data.aws_availability_zones.available">

<polygon fill="none" stroke="black" points="227.71,-443 -0.24,-443 -0.24,-407 227.71,-407 227.71,-443" style=""/>
<text text-anchor="middle" x="113.73" y="-420.8" font-family="sans-serif" font-size="14.00" style="">data.aws_availability_zones.available</text>
</g>
<!-- data.aws_region.current -->
<g id="node2" class="node" pointer-events="visible" data-name="data.aws_region.current">

<polygon fill="none" stroke="black" points="1010.28,-448 859.28,-448 859.28,-412 1010.28,-412 1010.28,-448" style=""/>
<text text-anchor="middle" x="934.78" y="-425.8" font-family="sans-serif" font-size="14.00" style="">data.aws_region.current</text>
</g>
<!-- data.aws_secretsmanager_secret_version.github_token -->
<g id="node3" class="node" pointer-events="visible" data-name="data.aws_secretsmanager_secret_version.github_token">

<polygon fill="none" stroke="black" points="2072.7,-352 1749.47,-352 1749.47,-316 2072.7,-316 2072.7,-352" style=""/>
<text text-anchor="middle" x="1911.08" y="-329.8" font-family="sans-serif" font-size="14.00" style="">data.aws_secretsmanager_secret_version.github_token</text>
</g>
<!-- aws_cloudwatch_log_group.ecs_logs -->
<g id="node4" class="node" pointer-events="visible" data-name="aws_cloudwatch_log_group.ecs_logs">

<polygon fill="none" stroke="black" points="1047.35,-340 822.21,-340 822.21,-304 1047.35,-304 1047.35,-340" style=""/>
<text text-anchor="middle" x="934.78" y="-317.8" font-family="sans-serif" font-size="14.00" style="">aws_cloudwatch_log_group.ecs_logs</text>
</g>
<!-- aws_codebuild_project.docker_build_project -->
<g id="node5" class="node" pointer-events="visible" data-name="aws_codebuild_project.docker_build_project">

<polygon fill="none" stroke="black" points="2045.67,-406 1776.5,-406 1776.5,-370 2045.67,-370 2045.67,-406" style=""/>
<text text-anchor="middle" x="1911.08" y="-383.8" font-family="sans-serif" font-size="14.00" style="">aws_codebuild_project.docker_build_project</text>
</g>
<!-- aws_codebuild_project.docker_build_project&#45;&gt;data.aws_region.current -->
<g id="edge1" class="edge" data-name="aws_codebuild_project.docker_build_project-&gt;data.aws_region.current">

<path fill="none" stroke="black" d="M1776.15,-393.77C1572.96,-402.53 1192.49,-418.93 1022.12,-426.28" style=""/>
<polygon fill="black" stroke="black" points="1022.07,-422.78 1012.23,-426.7 1022.37,-429.77 1022.07,-422.78" style=""/>
</g>
<!-- aws_ecr_repository.python_app -->
<g id="node11" class="node" pointer-events="visible" data-name="aws_ecr_repository.python_app">

<polygon fill="none" stroke="black" points="1032.51,-178 837.05,-178 837.05,-142 1032.51,-142 1032.51,-178" style=""/>
<text text-anchor="middle" x="934.78" y="-155.8" font-family="sans-serif" font-size="14.00" style="">aws_ecr_repository.python_app</text>
</g>
<!-- aws_codebuild_project.docker_build_project&#45;&gt;aws_ecr_repository.python_app -->
<g id="edge2" class="edge" data-name="aws_codebuild_project.docker_build_project-&gt;aws_ecr_repository.python_app">

<path fill="none" stroke="black" d="M1776.08,-372.18C1761.38,-369.08 1746.76,-365.39 1732.99,-361 1604.85,-320.14 1591.69,-262.93 1462.66,-225 1308.94,-179.82 1262.99,-208.14 1104.16,-187 1084.69,-184.41 1064,-181.35 1044.04,-178.23" style=""/>
<polygon fill="black" stroke="black" points="1044.62,-174.78 1034.2,-176.68 1043.53,-181.7 1044.62,-174.78" style=""/>
</g>
<!-- aws_iam_role.codebuild_role -->
<g id="node18" class="node" pointer-events="visible" data-name="aws_iam_role.codebuild_role">

<polygon fill="none" stroke="black" points="1688.83,-178 1506.82,-178 1506.82,-142 1688.83,-142 1688.83,-178" style=""/>
<text text-anchor="middle" x="1597.82" y="-155.8" font-family="sans-serif" font-size="14.00" style="">aws_iam_role.codebuild_role</text>
</g>
<!-- aws_codebuild_project.docker_build_project&#45;&gt;aws_iam_role.codebuild_role -->
<g id="edge3" class="edge" data-name="aws_codebuild_project.docker_build_project-&gt;aws_iam_role.codebuild_role">

<path fill="none" stroke="black" d="M1776.12,-385.62C1760.15,-380.39 1745.2,-372.52 1732.99,-361 1677.12,-308.31 1748.36,-249.08 1696.99,-192 1694.61,-189.35 1692,-186.93 1689.23,-184.7" style=""/>
<polygon fill="black" stroke="black" points="1691.31,-181.88 1681.08,-179.1 1687.34,-187.65 1691.31,-181.88" style=""/>
</g>
<!-- aws_codedeploy_app.ecs_app -->
<g id="node6" class="node" pointer-events="visible" data-name="aws_codedeploy_app.ecs_app">

<polygon fill="none" stroke="black" points="1690.43,-590 1505.21,-590 1505.21,-554 1690.43,-554 1690.43,-590" style=""/>
<text text-anchor="middle" x="1597.82" y="-567.8" font-family="sans-serif" font-size="14.00" style="">aws_codedeploy_app.ecs_app</text>
</g>
<!-- aws_codedeploy_deployment_group.ecs_deployment_group -->
<g id="node7" class="node" pointer-events="visible" data-name="aws_codedeploy_deployment_group.ecs_deployment_group">

<polygon fill="none" stroke="black" points="2089.28,-563 1732.89,-563 1732.89,-527 2089.28,-527 2089.28,-563" style=""/>
<text text-anchor="middle" x="1911.08" y="-540.8" font-family="sans-serif" font-size="14.00" style="">aws_codedeploy_deployment_group.ecs_deployment_group</text>
</g>
<!-- aws_codedeploy_deployment_group.ecs_deployment_group&#45;&gt;aws_codedeploy_app.ecs_app -->
<g id="edge4" class="edge" data-name="aws_codedeploy_deployment_group.ecs_deployment_group-&gt;aws_codedeploy_app.ecs_app">

<path fill="none" stroke="black" d="M1732.63,-560.39C1722.33,-561.29 1712.16,-562.17 1702.3,-563.02" style=""/>
<polygon fill="black" stroke="black" points="1702.05,-559.53 1692.39,-563.88 1702.66,-566.51 1702.05,-559.53" style=""/>
</g>
<!-- aws_ecs_service.app_service -->
<g id="node15" class="node" pointer-events="visible" data-name="aws_ecs_service.app_service">

<polygon fill="none" stroke="black" points="1687.47,-536 1508.18,-536 1508.18,-500 1687.47,-500 1687.47,-536" style=""/>
<text text-anchor="middle" x="1597.82" y="-513.8" font-family="sans-serif" font-size="14.00" style="">aws_ecs_service.app_service</text>
</g>
<!-- aws_codedeploy_deployment_group.ecs_deployment_group&#45;&gt;aws_ecs_service.app_service -->
<g id="edge5" class="edge" data-name="aws_codedeploy_deployment_group.ecs_deployment_group-&gt;aws_ecs_service.app_service">

<path fill="none" stroke="black" d="M1732.63,-529.61C1721.18,-528.61 1709.89,-527.63 1699.02,-526.69" style=""/>
<polygon fill="black" stroke="black" points="1699.62,-523.23 1689.36,-525.85 1699.02,-530.2 1699.62,-523.23" style=""/>
</g>
<!-- aws_iam_role.code_deploy_role -->
<g id="node17" class="node" pointer-events="visible" data-name="aws_iam_role.code_deploy_role">

<polygon fill="none" stroke="black" points="1697.15,-101 1498.49,-101 1498.49,-65 1697.15,-65 1697.15,-101" style=""/>
<text text-anchor="middle" x="1597.82" y="-78.8" font-family="sans-serif" font-size="14.00" style="">aws_iam_role.code_deploy_role</text>
</g>
<!-- aws_codedeploy_deployment_group.ecs_deployment_group&#45;&gt;aws_iam_role.code_deploy_role -->
<g id="edge6" class="edge" data-name="aws_codedeploy_deployment_group.ecs_deployment_group-&gt;aws_iam_role.code_deploy_role">

<path fill="none" stroke="black" d="M1868.28,-526.63C1826.55,-505.92 1764.25,-468.08 1732.99,-415 1668.86,-306.13 1769.71,-236.32 1696.99,-133 1689.37,-122.19 1678.71,-113.57 1667.21,-106.74" style=""/>
<polygon fill="black" stroke="black" points="1669.18,-103.83 1658.72,-102.15 1665.85,-109.99 1669.18,-103.83" style=""/>
</g>
<!-- aws_lb_listener.listener_production -->
<g id="node31" class="node" pointer-events="visible" data-name="aws_lb_listener.listener_production">

<polygon fill="none" stroke="black" points="1391.64,-636 1175.18,-636 1175.18,-600 1391.64,-600 1391.64,-636" style=""/>
<text text-anchor="middle" x="1283.41" y="-613.8" font-family="sans-serif" font-size="14.00" style="">aws_lb_listener.listener_production</text>
</g>
<!-- aws_codedeploy_deployment_group.ecs_deployment_group&#45;&gt;aws_lb_listener.listener_production -->
<g id="edge7" class="edge" data-name="aws_codedeploy_deployment_group.ecs_deployment_group-&gt;aws_lb_listener.listener_production">

<path fill="none" stroke="black" d="M1851.03,-563.39C1808.62,-575.75 1749.84,-591.17 1696.99,-599 1598.76,-613.55 1486.07,-617.92 1403.31,-618.87" style=""/>
<polygon fill="black" stroke="black" points="1403.32,-615.36 1393.35,-618.96 1403.38,-622.36 1403.32,-615.36" style=""/>
</g>
<!-- aws_lb_listener.listener_test -->
<g id="node32" class="node" pointer-events="visible" data-name="aws_lb_listener.listener_test">

<polygon fill="none" stroke="black" points="1370.93,-792 1195.89,-792 1195.89,-756 1370.93,-756 1370.93,-792" style=""/>
<text text-anchor="middle" x="1283.41" y="-769.8" font-family="sans-serif" font-size="14.00" style="">aws_lb_listener.listener_test</text>
</g>
<!-- aws_codedeploy_deployment_group.ecs_deployment_group&#45;&gt;aws_lb_listener.listener_test -->
<g id="edge8" class="edge" data-name="aws_codedeploy_deployment_group.ecs_deployment_group-&gt;aws_lb_listener.listener_test">

<path fill="none" stroke="black" d="M1875.79,-563.5C1802.24,-602.39 1622.99,-693.07 1462.66,-742 1437,-749.83 1408.65,-755.99 1382.25,-760.73" style=""/>
<polygon fill="black" stroke="black" points="1381.81,-757.26 1372.56,-762.42 1383.01,-764.15 1381.81,-757.26" style=""/>
</g>
<!-- aws_codepipeline.ecr_pipeline -->
<g id="node8" class="node" pointer-events="visible" data-name="aws_codepipeline.ecr_pipeline">

<polygon fill="none" stroke="black" points="2375.21,-352 2186.25,-352 2186.25,-316 2375.21,-316 2375.21,-352" style=""/>
<text text-anchor="middle" x="2280.73" y="-329.8" font-family="sans-serif" font-size="14.00" style="">aws_codepipeline.ecr_pipeline</text>
</g>
<!-- aws_codepipeline.ecr_pipeline&#45;&gt;data.aws_secretsmanager_secret_version.github_token -->
<g id="edge9" class="edge" data-name="aws_codepipeline.ecr_pipeline-&gt;data.aws_secretsmanager_secret_version.github_token">

<path fill="none" stroke="black" d="M2186.01,-334C2155,-334 2119.46,-334 2084.47,-334" style=""/>
<polygon fill="black" stroke="black" points="2084.65,-330.5 2074.65,-334 2084.65,-337.5 2084.65,-330.5" style=""/>
</g>
<!-- aws_codepipeline.ecr_pipeline&#45;&gt;aws_codebuild_project.docker_build_project -->
<g id="edge10" class="edge" data-name="aws_codepipeline.ecr_pipeline-&gt;aws_codebuild_project.docker_build_project">

<path fill="none" stroke="black" d="M2186.01,-347.77C2144.44,-353.87 2094.71,-361.18 2049.09,-367.88" style=""/>
<polygon fill="black" stroke="black" points="2048.78,-364.38 2039.4,-369.3 2049.8,-371.31 2048.78,-364.38" style=""/>
</g>
<!-- aws_codepipeline.ecr_pipeline&#45;&gt;aws_codedeploy_deployment_group.ecs_deployment_group -->
<g id="edge11" class="edge" data-name="aws_codepipeline.ecr_pipeline-&gt;aws_codedeploy_deployment_group.ecs_deployment_group">

<path fill="none" stroke="black" d="M2247.75,-352.36C2181.34,-390.47 2028.52,-478.17 1954.2,-520.83" style=""/>
<polygon fill="black" stroke="black" points="1952.5,-517.77 1945.57,-525.78 1955.98,-523.84 1952.5,-517.77" style=""/>
</g>
<!-- aws_iam_role.codepipeline_role -->
<g id="node19" class="node" pointer-events="visible" data-name="aws_iam_role.codepipeline_role">

<polygon fill="none" stroke="black" points="2010.41,-298 1811.76,-298 1811.76,-262 2010.41,-262 2010.41,-298" style=""/>
<text text-anchor="middle" x="1911.08" y="-275.8" font-family="sans-serif" font-size="14.00" style="">aws_iam_role.codepipeline_role</text>
</g>
<!-- aws_codepipeline.ecr_pipeline&#45;&gt;aws_iam_role.codepipeline_role -->
<g id="edge12" class="edge" data-name="aws_codepipeline.ecr_pipeline-&gt;aws_iam_role.codepipeline_role">

<path fill="none" stroke="black" d="M2186.01,-320.23C2136.06,-312.9 2074.32,-303.83 2022.11,-296.16" style=""/>
<polygon fill="black" stroke="black" points="2022.68,-292.71 2012.28,-294.72 2021.66,-299.63 2022.68,-292.71" style=""/>
</g>
<!-- aws_s3_bucket.artifact_store -->
<g id="node37" class="node" pointer-events="visible" data-name="aws_s3_bucket.artifact_store">

<polygon fill="none" stroke="black" points="2000.47,-244 1821.7,-244 1821.7,-208 2000.47,-208 2000.47,-244" style=""/>
<text text-anchor="middle" x="1911.08" y="-221.8" font-family="sans-serif" font-size="14.00" style="">aws_s3_bucket.artifact_store</text>
</g>
<!-- aws_codepipeline.ecr_pipeline&#45;&gt;aws_s3_bucket.artifact_store -->
<g id="edge13" class="edge" data-name="aws_codepipeline.ecr_pipeline-&gt;aws_s3_bucket.artifact_store">

<path fill="none" stroke="black" d="M2186.1,-329.98C2164.82,-325.82 2143.21,-318.75 2125.18,-307 2101.02,-291.24 2113.51,-268.49 2089.18,-253 2066.46,-238.53 2038.83,-230.76 2012.23,-226.81" style=""/>
<polygon fill="black" stroke="black" points="2012.78,-223.35 2002.41,-225.54 2011.88,-230.3 2012.78,-223.35" style=""/>
</g>
<!-- aws_db_instance.postgres -->
<g id="node9" class="node" pointer-events="visible" data-name="aws_db_instance.postgres">

<polygon fill="none" stroke="black" points="1015.58,-394 853.98,-394 853.98,-358 1015.58,-358 1015.58,-394" style=""/>
<text text-anchor="middle" x="934.78" y="-371.8" font-family="sans-serif" font-size="14.00" style="">aws_db_instance.postgres</text>
</g>
<!-- aws_db_subnet_group.db_subnet_group -->
<g id="node10" class="node" pointer-events="visible" data-name="aws_db_subnet_group.db_subnet_group">

<polygon fill="none" stroke="black" points="765.24,-410 522.84,-410 522.84,-374 765.24,-374 765.24,-410" style=""/>
<text text-anchor="middle" x="644.04" y="-387.8" font-family="sans-serif" font-size="14.00" style="">aws_db_subnet_group.db_subnet_group</text>
</g>
<!-- aws_db_instance.postgres&#45;&gt;aws_db_subnet_group.db_subnet_group -->
<g id="edge14" class="edge" data-name="aws_db_instance.postgres-&gt;aws_db_subnet_group.db_subnet_group">

<path fill="none" stroke="black" d="M853.73,-380.44C829.86,-381.76 803.03,-383.25 776.77,-384.7" style=""/>
<polygon fill="black" stroke="black" points="776.86,-381.19 767.07,-385.24 777.24,-388.18 776.86,-381.19" style=""/>
</g>
<!-- aws_security_group.db_security_group -->
<g id="node39" class="node" pointer-events="visible" data-name="aws_security_group.db_security_group">

<polygon fill="none" stroke="black" points="762.78,-642 525.31,-642 525.31,-606 762.78,-606 762.78,-642" style=""/>
<text text-anchor="middle" x="644.04" y="-619.8" font-family="sans-serif" font-size="14.00" style="">aws_security_group.db_security_group</text>
</g>
<!-- aws_db_instance.postgres&#45;&gt;aws_security_group.db_security_group -->
<g id="edge15" class="edge" data-name="aws_db_instance.postgres-&gt;aws_security_group.db_security_group">

<path fill="none" stroke="black" d="M853.56,-377.63C834.38,-381.7 815.42,-389.33 801.39,-403 750.44,-452.67 808.52,-502.41 765.39,-559 751.67,-577.01 731.46,-590.63 711.51,-600.62" style=""/>
<polygon fill="black" stroke="black" points="710.06,-597.44 702.51,-604.87 713.05,-603.77 710.06,-597.44" style=""/>
</g>
<!-- aws_subnet.private -->
<g id="node42" class="node" pointer-events="visible" data-name="aws_subnet.private">

<polygon fill="none" stroke="black" points="436.78,-420 313.39,-420 313.39,-384 436.78,-384 436.78,-420" style=""/>
<text text-anchor="middle" x="375.08" y="-397.8" font-family="sans-serif" font-size="14.00" style="">aws_subnet.private</text>
</g>
<!-- aws_db_subnet_group.db_subnet_group&#45;&gt;aws_subnet.private -->
<g id="edge16" class="edge" data-name="aws_db_subnet_group.db_subnet_group-&gt;aws_subnet.private">

<path fill="none" stroke="black" d="M522.45,-396.52C497.15,-397.46 471.23,-398.44 448.37,-399.29" style=""/>
<polygon fill="black" stroke="black" points="448.44,-395.79 438.58,-399.66 448.7,-402.78 448.44,-395.79" style=""/>
</g>
<!-- aws_ecr_repository_policy.codebuild_policy -->
<g id="node12" class="node" pointer-events="visible" data-name="aws_ecr_repository_policy.codebuild_policy">

<polygon fill="none" stroke="black" points="1417.73,-178 1149.09,-178 1149.09,-142 1417.73,-142 1417.73,-178" style=""/>
<text text-anchor="middle" x="1283.41" y="-155.8" font-family="sans-serif" font-size="14.00" style="">aws_ecr_repository_policy.codebuild_policy</text>
</g>
<!-- aws_ecr_repository_policy.codebuild_policy&#45;&gt;aws_ecr_repository.python_app -->
<g id="edge17" class="edge" data-name="aws_ecr_repository_policy.codebuild_policy-&gt;aws_ecr_repository.python_app">

<path fill="none" stroke="black" d="M1148.89,-160C1114.19,-160 1077.24,-160 1044.03,-160" style=""/>
<polygon fill="black" stroke="black" points="1044.43,-156.5 1034.43,-160 1044.43,-163.5 1044.43,-156.5" style=""/>
</g>
<!-- aws_ecr_repository_policy.ecs_policy -->
<g id="node13" class="node" pointer-events="visible" data-name="aws_ecr_repository_policy.ecs_policy">

<polygon fill="none" stroke="black" points="1398.9,-124 1167.92,-124 1167.92,-88 1398.9,-88 1398.9,-124" style=""/>
<text text-anchor="middle" x="1283.41" y="-101.8" font-family="sans-serif" font-size="14.00" style="">aws_ecr_repository_policy.ecs_policy</text>
</g>
<!-- aws_ecr_repository_policy.ecs_policy&#45;&gt;aws_ecr_repository.python_app -->
<g id="edge18" class="edge" data-name="aws_ecr_repository_policy.ecs_policy-&gt;aws_ecr_repository.python_app">

<path fill="none" stroke="black" d="M1167.8,-123.21C1146.64,-126.43 1124.73,-129.79 1104.16,-133 1084.76,-136.03 1064.1,-139.3 1044.14,-142.48" style=""/>
<polygon fill="black" stroke="black" points="1043.63,-139.02 1034.31,-144.06 1044.73,-145.93 1043.63,-139.02" style=""/>
</g>
<!-- aws_ecs_cluster.app_cluster -->
<g id="node14" class="node" pointer-events="visible" data-name="aws_ecs_cluster.app_cluster">

<polygon fill="none" stroke="black" points="1370.91,-540 1195.91,-540 1195.91,-504 1370.91,-504 1370.91,-540" style=""/>
<text text-anchor="middle" x="1283.41" y="-517.8" font-family="sans-serif" font-size="14.00" style="">aws_ecs_cluster.app_cluster</text>
</g>
<!-- aws_ecs_service.app_service&#45;&gt;aws_ecs_cluster.app_cluster -->
<g id="edge19" class="edge" data-name="aws_ecs_service.app_service-&gt;aws_ecs_cluster.app_cluster">

<path fill="none" stroke="black" d="M1507.72,-519.14C1468.65,-519.64 1422.66,-520.23 1382.61,-520.74" style=""/>
<polygon fill="black" stroke="black" points="1382.68,-517.24 1372.72,-520.87 1382.77,-524.24 1382.68,-517.24" style=""/>
</g>
<!-- aws_ecs_task_definition.app_task -->
<g id="node16" class="node" pointer-events="visible" data-name="aws_ecs_task_definition.app_task">

<polygon fill="none" stroke="black" points="1386.81,-378 1180.01,-378 1180.01,-342 1386.81,-342 1386.81,-378" style=""/>
<text text-anchor="middle" x="1283.41" y="-355.8" font-family="sans-serif" font-size="14.00" style="">aws_ecs_task_definition.app_task</text>
</g>
<!-- aws_ecs_service.app_service&#45;&gt;aws_ecs_task_definition.app_task -->
<g id="edge20" class="edge" data-name="aws_ecs_service.app_service-&gt;aws_ecs_task_definition.app_task">

<path fill="none" stroke="black" d="M1560.37,-499.57C1503.35,-470.73 1393.11,-414.97 1330.61,-383.36" style=""/>
<polygon fill="black" stroke="black" points="1332.48,-380.39 1321.98,-379 1329.32,-386.64 1332.48,-380.39" style=""/>
</g>
<!-- aws_lb_target_group.target_group_1 -->
<g id="node33" class="node" pointer-events="visible" data-name="aws_lb_target_group.target_group_1">

<polygon fill="none" stroke="black" points="1046.5,-594 823.05,-594 823.05,-558 1046.5,-558 1046.5,-594" style=""/>
<text text-anchor="middle" x="934.78" y="-571.8" font-family="sans-serif" font-size="14.00" style="">aws_lb_target_group.target_group_1</text>
</g>
<!-- aws_ecs_service.app_service&#45;&gt;aws_lb_target_group.target_group_1 -->
<g id="edge21" class="edge" data-name="aws_ecs_service.app_service-&gt;aws_lb_target_group.target_group_1">

<path fill="none" stroke="black" d="M1527.62,-536.44C1506.87,-541.3 1483.97,-546.02 1462.66,-549 1325.04,-568.27 1165.48,-574.18 1058.32,-575.8" style=""/>
<polygon fill="black" stroke="black" points="1058.28,-572.3 1048.33,-575.94 1058.38,-579.3 1058.28,-572.3" style=""/>
</g>
<!-- aws_security_group.lb_sg -->
<g id="node40" class="node" pointer-events="visible" data-name="aws_security_group.lb_sg">

<polygon fill="none" stroke="black" points="725.13,-698 562.95,-698 562.95,-662 725.13,-662 725.13,-698" style=""/>
<text text-anchor="middle" x="644.04" y="-675.8" font-family="sans-serif" font-size="14.00" style="">aws_security_group.lb_sg</text>
</g>
<!-- aws_ecs_service.app_service&#45;&gt;aws_security_group.lb_sg -->
<g id="edge22" class="edge" data-name="aws_ecs_service.app_service-&gt;aws_security_group.lb_sg">

<path fill="none" stroke="black" d="M1510.11,-536.38C1506.02,-538.9 1502.16,-541.76 1498.66,-545 1463.99,-577.09 1498.92,-614.73 1462.66,-645 1326.18,-758.91 1245.32,-696.28 1068.16,-711 950.01,-720.82 919.39,-722.59 801.39,-711 779.25,-708.83 755.59,-704.96 733.55,-700.68" style=""/>
<polygon fill="black" stroke="black" points="734.51,-697.3 724.02,-698.77 733.14,-704.16 734.51,-697.3" style=""/>
</g>
<!-- aws_subnet.public -->
<g id="node43" class="node" pointer-events="visible" data-name="aws_subnet.public">

<polygon fill="none" stroke="black" points="703.86,-496 584.23,-496 584.23,-460 703.86,-460 703.86,-496" style=""/>
<text text-anchor="middle" x="644.04" y="-473.8" font-family="sans-serif" font-size="14.00" style="">aws_subnet.public</text>
</g>
<!-- aws_ecs_service.app_service&#45;&gt;aws_subnet.public -->
<g id="edge23" class="edge" data-name="aws_ecs_service.app_service-&gt;aws_subnet.public">

<path fill="none" stroke="black" d="M1507.94,-500.85C1492.88,-498.5 1477.36,-496.41 1462.66,-495 1187.1,-468.66 857.03,-472.58 715.31,-475.95" style=""/>
<polygon fill="black" stroke="black" points="715.64,-472.44 705.73,-476.18 715.81,-479.44 715.64,-472.44" style=""/>
</g>
<!-- aws_ecs_task_definition.app_task&#45;&gt;data.aws_region.current -->
<g id="edge24" class="edge" data-name="aws_ecs_task_definition.app_task-&gt;data.aws_region.current">

<path fill="none" stroke="black" d="M1190.88,-378.48C1138.47,-389.07 1073.1,-402.27 1021.66,-412.66" style=""/>
<polygon fill="black" stroke="black" points="1021.16,-409.19 1012.05,-414.6 1022.55,-416.05 1021.16,-409.19" style=""/>
</g>
<!-- aws_ecs_task_definition.app_task&#45;&gt;aws_cloudwatch_log_group.ecs_logs -->
<g id="edge25" class="edge" data-name="aws_ecs_task_definition.app_task-&gt;aws_cloudwatch_log_group.ecs_logs">

<path fill="none" stroke="black" d="M1179.82,-348.75C1141.94,-344.6 1098.63,-339.85 1059.11,-335.52" style=""/>
<polygon fill="black" stroke="black" points="1059.62,-332.06 1049.3,-334.45 1058.86,-339.01 1059.62,-332.06" style=""/>
</g>
<!-- aws_ecs_task_definition.app_task&#45;&gt;aws_db_instance.postgres -->
<g id="edge26" class="edge" data-name="aws_ecs_task_definition.app_task-&gt;aws_db_instance.postgres">

<path fill="none" stroke="black" d="M1179.82,-364.74C1131.4,-366.97 1074.11,-369.62 1027.2,-371.78" style=""/>
<polygon fill="black" stroke="black" points="1027.16,-368.28 1017.33,-372.24 1027.48,-375.27 1027.16,-368.28" style=""/>
</g>
<!-- aws_ecs_task_definition.app_task&#45;&gt;aws_ecr_repository.python_app -->
<g id="edge27" class="edge" data-name="aws_ecs_task_definition.app_task-&gt;aws_ecr_repository.python_app">

<path fill="none" stroke="black" d="M1179.62,-364.43C1152.24,-360.66 1124.62,-351.67 1104.16,-333 1054.8,-287.95 1116.37,-233.29 1068.16,-187 1060.97,-180.09 1052.52,-174.74 1043.42,-170.61" style=""/>
<polygon fill="black" stroke="black" points="1044.9,-167.43 1034.32,-167 1042.33,-173.94 1044.9,-167.43" style=""/>
</g>
<!-- aws_iam_role.ecs_execution_role -->
<g id="node20" class="node" pointer-events="visible" data-name="aws_iam_role.ecs_execution_role">

<polygon fill="none" stroke="black" points="1037.87,-286 831.69,-286 831.69,-250 1037.87,-250 1037.87,-286" style=""/>
<text text-anchor="middle" x="934.78" y="-263.8" font-family="sans-serif" font-size="14.00" style="">aws_iam_role.ecs_execution_role</text>
</g>
<!-- aws_ecs_task_definition.app_task&#45;&gt;aws_iam_role.ecs_execution_role -->
<g id="edge28" class="edge" data-name="aws_ecs_task_definition.app_task-&gt;aws_iam_role.ecs_execution_role">

<path fill="none" stroke="black" d="M1179.77,-356.15C1154.02,-352.09 1127.19,-345.03 1104.16,-333 1083.54,-322.23 1088.5,-306.29 1068.16,-295 1062.04,-291.6 1055.54,-288.63 1048.85,-286.03" style=""/>
<polygon fill="black" stroke="black" points="1050.2,-282.79 1039.6,-282.74 1047.86,-289.39 1050.2,-282.79" style=""/>
</g>
<!-- aws_iam_role.ecs_task_role -->
<g id="node21" class="node" pointer-events="visible" data-name="aws_iam_role.ecs_task_role">

<polygon fill="none" stroke="black" points="1022,-232 847.55,-232 847.55,-196 1022,-196 1022,-232" style=""/>
<text text-anchor="middle" x="934.78" y="-209.8" font-family="sans-serif" font-size="14.00" style="">aws_iam_role.ecs_task_role</text>
</g>
<!-- aws_ecs_task_definition.app_task&#45;&gt;aws_iam_role.ecs_task_role -->
<g id="edge29" class="edge" data-name="aws_ecs_task_definition.app_task-&gt;aws_iam_role.ecs_task_role">

<path fill="none" stroke="black" d="M1179.75,-362.46C1152.84,-358.56 1125.44,-350 1104.16,-333 1069.86,-305.59 1101.76,-269.27 1068.16,-241 1058,-232.45 1045.85,-226.36 1033.09,-222.06" style=""/>
<polygon fill="black" stroke="black" points="1034.3,-218.76 1023.72,-219.28 1032.31,-225.48 1034.3,-218.76" style=""/>
</g>
<!-- aws_iam_role_policy.codebuild_policy -->
<g id="node22" class="node" pointer-events="visible" data-name="aws_iam_role_policy.codebuild_policy">

<polygon fill="none" stroke="black" points="2399.46,-190 2162.01,-190 2162.01,-154 2399.46,-154 2399.46,-190" style=""/>
<text text-anchor="middle" x="2280.73" y="-167.8" font-family="sans-serif" font-size="14.00" style="">aws_iam_role_policy.codebuild_policy</text>
</g>
<!-- aws_iam_role_policy.codebuild_policy&#45;&gt;aws_iam_role.codebuild_role -->
<g id="edge30" class="edge" data-name="aws_iam_role_policy.codebuild_policy-&gt;aws_iam_role.codebuild_role">

<path fill="none" stroke="black" d="M2161.51,-169.92C2031.24,-167.62 1823.87,-163.97 1700.58,-161.79" style=""/>
<polygon fill="black" stroke="black" points="1700.85,-158.3 1690.79,-161.62 1700.73,-165.3 1700.85,-158.3" style=""/>
</g>
<!-- aws_iam_role_policy.codebuild_policy&#45;&gt;aws_s3_bucket.artifact_store -->
<g id="edge31" class="edge" data-name="aws_iam_role_policy.codebuild_policy-&gt;aws_s3_bucket.artifact_store">

<path fill="none" stroke="black" d="M2161.63,-189.35C2113.43,-196.43 2058.28,-204.53 2012.11,-211.31" style=""/>
<polygon fill="black" stroke="black" points="2011.76,-207.82 2002.38,-212.74 2012.78,-214.75 2011.76,-207.82" style=""/>
</g>
<!-- aws_iam_role_policy.codepipeline_policy -->
<g id="node23" class="node" pointer-events="visible" data-name="aws_iam_role_policy.codepipeline_policy">

<polygon fill="none" stroke="black" points="2407.27,-298 2154.19,-298 2154.19,-262 2407.27,-262 2407.27,-298" style=""/>
<text text-anchor="middle" x="2280.73" y="-275.8" font-family="sans-serif" font-size="14.00" style="">aws_iam_role_policy.codepipeline_policy</text>
</g>
<!-- aws_iam_role_policy.codepipeline_policy&#45;&gt;aws_iam_role.codepipeline_role -->
<g id="edge32" class="edge" data-name="aws_iam_role_policy.codepipeline_policy-&gt;aws_iam_role.codepipeline_role">

<path fill="none" stroke="black" d="M2153.72,-280C2110.97,-280 2063.58,-280 2022.17,-280" style=""/>
<polygon fill="black" stroke="black" points="2022.17,-276.5 2012.17,-280 2022.17,-283.5 2022.17,-276.5" style=""/>
</g>
<!-- aws_iam_role_policy.codepipeline_policy&#45;&gt;aws_s3_bucket.artifact_store -->
<g id="edge33" class="edge" data-name="aws_iam_role_policy.codepipeline_policy-&gt;aws_s3_bucket.artifact_store">

<path fill="none" stroke="black" d="M2153.98,-261.53C2107.69,-254.73 2055.92,-247.13 2012.19,-240.7" style=""/>
<polygon fill="black" stroke="black" points="2012.86,-237.26 2002.46,-239.27 2011.84,-244.19 2012.86,-237.26" style=""/>
</g>
<!-- aws_iam_role_policy.ecs_task_role_policy -->
<g id="node24" class="node" pointer-events="visible" data-name="aws_iam_role_policy.ecs_task_role_policy">

<polygon fill="none" stroke="black" points="1412.62,-270 1154.2,-270 1154.2,-234 1412.62,-234 1412.62,-270" style=""/>
<text text-anchor="middle" x="1283.41" y="-247.8" font-family="sans-serif" font-size="14.00" style="">aws_iam_role_policy.ecs_task_role_policy</text>
</g>
<!-- aws_iam_role_policy.ecs_task_role_policy&#45;&gt;aws_iam_role.ecs_task_role -->
<g id="edge34" class="edge" data-name="aws_iam_role_policy.ecs_task_role_policy-&gt;aws_iam_role.ecs_task_role">

<path fill="none" stroke="black" d="M1153.83,-237.9C1114.11,-233.55 1071.02,-228.83 1033.72,-224.74" style=""/>
<polygon fill="black" stroke="black" points="1034.16,-221.26 1023.84,-223.65 1033.4,-228.22 1034.16,-221.26" style=""/>
</g>
<!-- aws_iam_role_policy_attachment.code_deploy_policy -->
<g id="node25" class="node" pointer-events="visible" data-name="aws_iam_role_policy_attachment.code_deploy_policy">

<polygon fill="none" stroke="black" points="2072.05,-144 1750.12,-144 1750.12,-108 2072.05,-108 2072.05,-144" style=""/>
<text text-anchor="middle" x="1911.08" y="-121.8" font-family="sans-serif" font-size="14.00" style="">aws_iam_role_policy_attachment.code_deploy_policy</text>
</g>
<!-- aws_iam_role_policy_attachment.code_deploy_policy&#45;&gt;aws_iam_role.code_deploy_role -->
<g id="edge35" class="edge" data-name="aws_iam_role_policy_attachment.code_deploy_policy-&gt;aws_iam_role.code_deploy_role">

<path fill="none" stroke="black" d="M1776.28,-107.51C1753.68,-104.39 1730.47,-101.19 1708.58,-98.16" style=""/>
<polygon fill="black" stroke="black" points="1709.15,-94.71 1698.77,-96.81 1708.19,-101.64 1709.15,-94.71" style=""/>
</g>
<!-- aws_iam_role_policy_attachment.ecs_execution_role_policy -->
<g id="node26" class="node" pointer-events="visible" data-name="aws_iam_role_policy_attachment.ecs_execution_role_policy">

<polygon fill="none" stroke="black" points="1462.91,-324 1103.92,-324 1103.92,-288 1462.91,-288 1462.91,-324" style=""/>
<text text-anchor="middle" x="1283.41" y="-301.8" font-family="sans-serif" font-size="14.00" style="">aws_iam_role_policy_attachment.ecs_execution_role_policy</text>
</g>
<!-- aws_iam_role_policy_attachment.ecs_execution_role_policy&#45;&gt;aws_iam_role.ecs_execution_role -->
<g id="edge36" class="edge" data-name="aws_iam_role_policy_attachment.ecs_execution_role_policy-&gt;aws_iam_role.ecs_execution_role">

<path fill="none" stroke="black" d="M1113.66,-287.5C1091.87,-285.11 1069.99,-282.71 1049.38,-280.45" style=""/>
<polygon fill="black" stroke="black" points="1049.9,-276.99 1039.58,-279.38 1049.14,-283.95 1049.9,-276.99" style=""/>
</g>
<!-- aws_iam_role_policy_attachment.ecs_policy -->
<g id="node27" class="node" pointer-events="visible" data-name="aws_iam_role_policy_attachment.ecs_policy">

<polygon fill="none" stroke="black" points="2045.39,-90 1776.78,-90 1776.78,-54 2045.39,-54 2045.39,-90" style=""/>
<text text-anchor="middle" x="1911.08" y="-67.8" font-family="sans-serif" font-size="14.00" style="">aws_iam_role_policy_attachment.ecs_policy</text>
</g>
<!-- aws_iam_role_policy_attachment.ecs_policy&#45;&gt;aws_iam_role.code_deploy_role -->
<g id="edge37" class="edge" data-name="aws_iam_role_policy_attachment.ecs_policy-&gt;aws_iam_role.code_deploy_role">

<path fill="none" stroke="black" d="M1776.73,-76.71C1754.1,-77.51 1730.84,-78.33 1708.9,-79.11" style=""/>
<polygon fill="black" stroke="black" points="1708.94,-75.61 1699.07,-79.46 1709.19,-82.6 1708.94,-75.61" style=""/>
</g>
<!-- aws_iam_role_policy_attachment.elb_policy -->
<g id="node28" class="node" pointer-events="visible" data-name="aws_iam_role_policy_attachment.elb_policy">

<polygon fill="none" stroke="black" points="2044.62,-36 1777.55,-36 1777.55,0 2044.62,0 2044.62,-36" style=""/>
<text text-anchor="middle" x="1911.08" y="-13.8" font-family="sans-serif" font-size="14.00" style="">aws_iam_role_policy_attachment.elb_policy</text>
</g>
<!-- aws_iam_role_policy_attachment.elb_policy&#45;&gt;aws_iam_role.code_deploy_role -->
<g id="edge38" class="edge" data-name="aws_iam_role_policy_attachment.elb_policy-&gt;aws_iam_role.code_deploy_role">

<path fill="none" stroke="black" d="M1777.27,-36.41C1762.28,-39.03 1747.27,-41.9 1732.99,-45 1711.93,-49.57 1689.3,-55.55 1668.73,-61.42" style=""/>
<polygon fill="black" stroke="black" points="1667.95,-58 1659.32,-64.14 1669.9,-64.72 1667.95,-58" style=""/>
</g>
<!-- aws_internet_gateway.main -->
<g id="node29" class="node" pointer-events="visible" data-name="aws_internet_gateway.main">

<polygon fill="none" stroke="black" points="461.25,-550 288.92,-550 288.92,-514 461.25,-514 461.25,-550" style=""/>
<text text-anchor="middle" x="375.08" y="-527.8" font-family="sans-serif" font-size="14.00" style="">aws_internet_gateway.main</text>
</g>
<!-- aws_vpc.main -->
<g id="node44" class="node" pointer-events="visible" data-name="aws_vpc.main">

<polygon fill="none" stroke="black" points="162.22,-596 65.25,-596 65.25,-560 162.22,-560 162.22,-596" style=""/>
<text text-anchor="middle" x="113.73" y="-573.8" font-family="sans-serif" font-size="14.00" style="">aws_vpc.main</text>
</g>
<!-- aws_internet_gateway.main&#45;&gt;aws_vpc.main -->
<g id="edge39" class="edge" data-name="aws_internet_gateway.main-&gt;aws_vpc.main">

<path fill="none" stroke="black" d="M288.44,-547.19C250.8,-553.87 207.53,-561.54 173.6,-567.56" style=""/>
<polygon fill="black" stroke="black" points="173.19,-564.08 163.96,-569.27 174.42,-570.97 173.19,-564.08" style=""/>
</g>
<!-- aws_lb.app_lb -->
<g id="node30" class="node" pointer-events="visible" data-name="aws_lb.app_lb">

<polygon fill="none" stroke="black" points="983.55,-648 886.01,-648 886.01,-612 983.55,-612 983.55,-648" style=""/>
<text text-anchor="middle" x="934.78" y="-625.8" font-family="sans-serif" font-size="14.00" style="">aws_lb.app_lb</text>
</g>
<!-- aws_lb.app_lb&#45;&gt;aws_security_group.lb_sg -->
<g id="edge40" class="edge" data-name="aws_lb.app_lb-&gt;aws_security_group.lb_sg">

<path fill="none" stroke="black" d="M885.78,-638.31C845.23,-645.33 786.01,-655.59 736.45,-664.17" style=""/>
<polygon fill="black" stroke="black" points="736.14,-660.67 726.88,-665.83 737.33,-667.57 736.14,-660.67" style=""/>
</g>
<!-- aws_lb.app_lb&#45;&gt;aws_subnet.public -->
<g id="edge41" class="edge" data-name="aws_lb.app_lb-&gt;aws_subnet.public">

<path fill="none" stroke="black" d="M885.63,-631.24C858.04,-629.48 824.43,-622.8 801.39,-603 766.2,-572.76 800.29,-535.59 765.39,-505 751.53,-492.84 733.37,-485.81 715.38,-481.83" style=""/>
<polygon fill="black" stroke="black" points="716.2,-478.42 705.72,-480.01 714.9,-485.3 716.2,-478.42" style=""/>
</g>
<!-- aws_lb_listener.listener_production&#45;&gt;aws_lb.app_lb -->
<g id="edge42" class="edge" data-name="aws_lb_listener.listener_production-&gt;aws_lb.app_lb">

<path fill="none" stroke="black" d="M1175.11,-621.71C1115.84,-623.77 1044.45,-626.24 995.16,-627.94" style=""/>
<polygon fill="black" stroke="black" points="995.13,-624.44 985.25,-628.29 995.37,-631.44 995.13,-624.44" style=""/>
</g>
<!-- aws_lb_listener.listener_production&#45;&gt;aws_lb_target_group.target_group_1 -->
<g id="edge43" class="edge" data-name="aws_lb_listener.listener_production-&gt;aws_lb_target_group.target_group_1">

<path fill="none" stroke="black" d="M1175.11,-605C1138.01,-600.5 1096.17,-595.43 1057.96,-590.8" style=""/>
<polygon fill="black" stroke="black" points="1058.62,-587.36 1048.27,-589.63 1057.77,-594.31 1058.62,-587.36" style=""/>
</g>
<!-- aws_lb_listener.listener_test&#45;&gt;aws_lb.app_lb -->
<g id="edge44" class="edge" data-name="aws_lb_listener.listener_test-&gt;aws_lb.app_lb">

<path fill="none" stroke="black" d="M1255.26,-755.68C1215.77,-729.87 1139.41,-683.05 1068.16,-657 1044.88,-648.49 1018.25,-642.4 995.01,-638.19" style=""/>
<polygon fill="black" stroke="black" points="995.85,-634.78 985.4,-636.53 994.66,-641.68 995.85,-634.78" style=""/>
</g>
<!-- aws_lb_target_group.target_group_2 -->
<g id="node34" class="node" pointer-events="visible" data-name="aws_lb_target_group.target_group_2">

<polygon fill="none" stroke="black" points="486.81,-760 263.36,-760 263.36,-724 486.81,-724 486.81,-760" style=""/>
<text text-anchor="middle" x="375.08" y="-737.8" font-family="sans-serif" font-size="14.00" style="">aws_lb_target_group.target_group_2</text>
</g>
<!-- aws_lb_listener.listener_test&#45;&gt;aws_lb_target_group.target_group_2 -->
<g id="edge45" class="edge" data-name="aws_lb_listener.listener_test-&gt;aws_lb_target_group.target_group_2">

<path fill="none" stroke="black" d="M1195.51,-770.93C1033.42,-765.21 684.6,-752.89 498.66,-746.33" style=""/>
<polygon fill="black" stroke="black" points="498.83,-742.83 488.71,-745.98 498.58,-749.83 498.83,-742.83" style=""/>
</g>
<!-- aws_lb_target_group.target_group_1&#45;&gt;aws_vpc.main -->
<g id="edge46" class="edge" data-name="aws_lb_target_group.target_group_1-&gt;aws_vpc.main">

<path fill="none" stroke="black" d="M822.89,-576.27C646.88,-576.7 309.57,-577.52 173.65,-577.86" style=""/>
<polygon fill="black" stroke="black" points="173.79,-574.36 163.8,-577.88 173.81,-581.36 173.79,-574.36" style=""/>
</g>
<!-- aws_lb_target_group.target_group_2&#45;&gt;aws_vpc.main -->
<g id="edge47" class="edge" data-name="aws_lb_target_group.target_group_2-&gt;aws_vpc.main">

<path fill="none" stroke="black" d="M336.82,-723.59C315.05,-712.48 287.28,-697.67 263.47,-683 222.44,-657.71 177.51,-625.29 147.89,-603.21" style=""/>
<polygon fill="black" stroke="black" points="150.15,-600.53 140.05,-597.33 145.95,-606.13 150.15,-600.53" style=""/>
</g>
<!-- aws_route_table.public -->
<g id="node35" class="node" pointer-events="visible" data-name="aws_route_table.public">

<polygon fill="none" stroke="black" points="717.28,-550 570.81,-550 570.81,-514 717.28,-514 717.28,-550" style=""/>
<text text-anchor="middle" x="644.04" y="-527.8" font-family="sans-serif" font-size="14.00" style="">aws_route_table.public</text>
</g>
<!-- aws_route_table.public&#45;&gt;aws_internet_gateway.main -->
<g id="edge48" class="edge" data-name="aws_route_table.public-&gt;aws_internet_gateway.main">

<path fill="none" stroke="black" d="M570.45,-532C540.34,-532 504.97,-532 472.71,-532" style=""/>
<polygon fill="black" stroke="black" points="472.96,-528.5 462.96,-532 472.96,-535.5 472.96,-528.5" style=""/>
</g>
<!-- aws_route_table_association.public -->
<g id="node36" class="node" pointer-events="visible" data-name="aws_route_table_association.public">

<polygon fill="none" stroke="black" points="1042.73,-540 826.83,-540 826.83,-504 1042.73,-504 1042.73,-540" style=""/>
<text text-anchor="middle" x="934.78" y="-517.8" font-family="sans-serif" font-size="14.00" style="">aws_route_table_association.public</text>
</g>
<!-- aws_route_table_association.public&#45;&gt;aws_route_table.public -->
<g id="edge49" class="edge" data-name="aws_route_table_association.public-&gt;aws_route_table.public">

<path fill="none" stroke="black" d="M826.68,-525.71C794.37,-526.83 759.39,-528.04 728.84,-529.1" style=""/>
<polygon fill="black" stroke="black" points="728.75,-525.6 718.87,-529.44 728.99,-532.59 728.75,-525.6" style=""/>
</g>
<!-- aws_route_table_association.public&#45;&gt;aws_subnet.public -->
<g id="edge50" class="edge" data-name="aws_route_table_association.public-&gt;aws_subnet.public">

<path fill="none" stroke="black" d="M826.68,-505.68C789.47,-500.01 748.73,-493.8 715.27,-488.7" style=""/>
<polygon fill="black" stroke="black" points="716.13,-485.29 705.72,-487.25 715.08,-492.21 716.13,-485.29" style=""/>
</g>
<!-- aws_s3_bucket_versioning.artifact_store_versioning -->
<g id="node38" class="node" pointer-events="visible" data-name="aws_s3_bucket_versioning.artifact_store_versioning">

<polygon fill="none" stroke="black" points="2436.32,-244 2125.14,-244 2125.14,-208 2436.32,-208 2436.32,-244" style=""/>
<text text-anchor="middle" x="2280.73" y="-221.8" font-family="sans-serif" font-size="14.00" style="">aws_s3_bucket_versioning.artifact_store_versioning</text>
</g>
<!-- aws_s3_bucket_versioning.artifact_store_versioning&#45;&gt;aws_s3_bucket.artifact_store -->
<g id="edge51" class="edge" data-name="aws_s3_bucket_versioning.artifact_store_versioning-&gt;aws_s3_bucket.artifact_store">

<path fill="none" stroke="black" d="M2124.88,-226C2086.63,-226 2046.67,-226 2011.84,-226" style=""/>
<polygon fill="black" stroke="black" points="2012.23,-222.5 2002.23,-226 2012.23,-229.5 2012.23,-222.5" style=""/>
</g>
<!-- aws_security_group.db_security_group&#45;&gt;aws_vpc.main -->
<g id="edge52" class="edge" data-name="aws_security_group.db_security_group-&gt;aws_vpc.main">

<path fill="none" stroke="black" d="M525.04,-614.35C450.11,-608.15 351.08,-599.82 263.47,-592 233.97,-589.37 201.2,-586.3 173.94,-583.71" style=""/>
<polygon fill="black" stroke="black" points="174.41,-580.24 164.12,-582.77 173.75,-587.2 174.41,-580.24" style=""/>
</g>
<!-- aws_security_group.lb_sg&#45;&gt;aws_vpc.main -->
<g id="edge53" class="edge" data-name="aws_security_group.lb_sg-&gt;aws_vpc.main">

<path fill="none" stroke="black" d="M562.74,-668.02C485.69,-656.11 366.2,-636.54 263.47,-615 233.6,-608.74 200.64,-600.66 173.35,-593.65" style=""/>
<polygon fill="black" stroke="black" points="174.44,-590.32 163.89,-591.2 172.69,-597.09 174.44,-590.32" style=""/>
</g>
<!-- aws_security_group_rule.postgres_from_ecs -->
<g id="node41" class="node" pointer-events="visible" data-name="aws_security_group_rule.postgres_from_ecs">

<polygon fill="none" stroke="black" points="1068.05,-702 801.51,-702 801.51,-666 1068.05,-666 1068.05,-702" style=""/>
<text text-anchor="middle" x="934.78" y="-679.8" font-family="sans-serif" font-size="14.00" style="">aws_security_group_rule.postgres_from_ecs</text>
</g>
<!-- aws_security_group_rule.postgres_from_ecs&#45;&gt;aws_security_group.db_security_group -->
<g id="edge54" class="edge" data-name="aws_security_group_rule.postgres_from_ecs-&gt;aws_security_group.db_security_group">

<path fill="none" stroke="black" d="M842.96,-665.56C829.04,-662.71 814.83,-659.79 801.39,-657 782.55,-653.09 762.43,-648.87 743.12,-644.81" style=""/>
<polygon fill="black" stroke="black" points="743.85,-641.38 733.34,-642.75 742.4,-648.23 743.85,-641.38" style=""/>
</g>
<!-- aws_security_group_rule.postgres_from_ecs&#45;&gt;aws_security_group.lb_sg -->
<g id="edge55" class="edge" data-name="aws_security_group_rule.postgres_from_ecs-&gt;aws_security_group.lb_sg">

<path fill="none" stroke="black" d="M801.24,-682.16C779.35,-681.86 757.1,-681.55 736.51,-681.27" style=""/>
<polygon fill="black" stroke="black" points="736.82,-677.77 726.77,-681.13 736.72,-684.77 736.82,-677.77" style=""/>
</g>
<!-- aws_subnet.private&#45;&gt;data.aws_availability_zones.available -->
<g id="edge56" class="edge" data-name="aws_subnet.private-&gt;data.aws_availability_zones.available">

<path fill="none" stroke="black" d="M312.95,-407.42C290.84,-409.38 265,-411.67 239.41,-413.94" style=""/>
<polygon fill="black" stroke="black" points="239.24,-410.44 229.59,-414.81 239.86,-417.42 239.24,-410.44" style=""/>
</g>
<!-- aws_subnet.private&#45;&gt;aws_vpc.main -->
<g id="edge57" class="edge" data-name="aws_subnet.private-&gt;aws_vpc.main">

<path fill="none" stroke="black" d="M344.22,-420.28C321.8,-434.16 290.44,-453.87 263.47,-472 223.57,-498.81 178.77,-531.04 148.87,-552.87" style=""/>
<polygon fill="black" stroke="black" points="146.93,-549.95 140.93,-558.67 151.06,-555.6 146.93,-549.95" style=""/>
</g>
<!-- aws_subnet.public&#45;&gt;data.aws_availability_zones.available -->
<g id="edge58" class="edge" data-name="aws_subnet.public-&gt;data.aws_availability_zones.available">

<path fill="none" stroke="black" d="M583.98,-472.07C501.09,-463.76 348.23,-448.42 239.51,-437.52" style=""/>
<polygon fill="black" stroke="black" points="239.94,-434.04 229.64,-436.53 239.25,-441.01 239.94,-434.04" style=""/>
</g>
<!-- aws_subnet.public&#45;&gt;aws_vpc.main -->
<g id="edge59" class="edge" data-name="aws_subnet.public-&gt;aws_vpc.main">

<path fill="none" stroke="black" d="M584.01,-475.28C508.36,-473.36 373.81,-475.22 263.47,-505 223.97,-515.66 182.45,-537.01 153.35,-553.88" style=""/>
<polygon fill="black" stroke="black" points="151.73,-550.77 144.9,-558.86 155.29,-556.8 151.73,-550.77" style=""/>
</g>
</g>
</svg>